<svg xmlns="http://www.w3.org/2000/svg" width="14.96" height="27.72" viewBox="56.52 50 14.96 27.72">
  <path fill="#231F20" d="M68.18 55.2c1.03.02 2 0 2.68-.3.4-.83.56-1.87.62-3-.2-.02-.06-.34-.2-.4-.04-.2-.28-.2-.32-.4-.27-.16-.45-.42-.72-.6l-2.16-.5c-.85.05-1.9-.1-2.58.1-2.62-.03-4 1.13-5.26 2.4-.02.08 0 .2-.1.2-.58 1.58-.13 3.62-.2 5.58.1.43.1.96.2 1.4-1 .3-2.22.38-3.4.5-.32.32-.2 1.08-.2 1.68.07.6.26 1.06.4 1.6.2.2.6.4.82.5.07.03.08.08.1.1.5.26 1.46 0 2.28.1-.14 1.97.25 3.9 0 5.68 0 .32.3.38.2.8 0 .96-.06 1.98.2 2.68-.28.46-.5 1-.4 1.8.12 0 .1.16.1.3-.07.47.64.17.52.7.16.45-.43.18-.42.5v.9c.53.27 1.47.17 2.27.2 1-.43 2.2-.5 2.8-1.2.5.23.9-.02 1.3-.2 0-.32.3-.34.2-.7 0-.33-.1-.5-.1-.9v-2.9c-.2-2.28 0-4.93-.3-7.17.9-.1 1.9-.07 2.6-.4.4-.44.4-1.22.56-1.9.18-.22.2-.57.2-1 .2-.2.08-.7.1-1.08-.13-.6-.16-1.3-.8-1.4-.9-.23-2.06.6-3 .3.04-1.13-.3-2.33 0-3.38l2.16-.6zm-3.82 4.77c.12.25.26.5.42.7.08.02.2 0 .2.1 1.2.06 2.2-.07 3.1-.3 0 1-.27 1.73-.52 2.5-.66.04-1.47.3-1.96.2-.27.16-.37.5-.62.7-.05.43.14.48 0 .8-.2.12-.05.6-.2.78v1.5c.08.28-.15.26-.1.5v3.48c-.1.28.14.26.1.5v3c.06.26-.14.78.1.9-.07.35-.4-.03-.82.1-.53.1-.93.35-1.55.4.2-.37.4-.64.4-1.1.1-.4-.32-.32-.5-.5.2-.64.6-1.12.77-1.8.2-.5.7-1.3.3-1.8-.52-.1-.52.3-.82.4 0 .1 0 .2-.1.2 0 .1 0 .2-.1.2 0 .13-.14.07 0 0 .04-.07 0-.2.1-.2.04-.07 0-.2.1-.2v-.3c.4-.56.7-1.2.85-1.98.2-.28.3-.66.4-1 .16-.26.35-.87.1-1.2-.5.04-.8.3-.9.7-.34-.2.14-.43.1-.7.12-.22.15-.56.3-.8.2-.4.56-1.3 0-1.6-.44 0-.6.22-.7.5-.24.2-.46.4-.55.7-.36-.06-.13-.72-.2-1.1-.06-.5.1-.9 0-1.18-.55-.8-2.02-.1-3.2-.3-.1-.3-.2-1-.1-1.2 1.05-.08 2.5.2 3.2-.2.03-.07 0-.2.1-.2.1-.72-.26-1-.5-1.4.23-.8.03-2 .1-2.98.23-.2.33-.5.5-.6.1-1 .7-1.5.73-2.5-.26 0-.6-.1-.6.2-.3-.1-.4.4-.52.2-.1-.6.26-.7.3-1 .6-.4 1.23-.9 1.88-1.2 1.76-.3 4.66-.5 6.1.2.05.6-.3.8-.2 1.5h-1.6c-1.1.2-2 .6-3 1-.22 0-.26.3-.5.4-.03.4-.22.6-.3 1-.1 1.4.12 2.5.1 3.9z"/>
</svg>
